<svg width="50" height="50" viewBox="0 0 50 50" fill="none" xmlns="http://www.w3.org/2000/svg">
<path d="M49.2008 23.0574L31.144 5.00027C30.6286 4.48483 29.9416 4.2019 29.2091 4.2019C28.4758 4.2019 27.7892 4.48524 27.2737 5.00027L25.6343 6.6401C25.1193 7.15473 24.8356 7.84212 24.8356 8.57504C24.8356 9.30755 25.1193 10.0181 25.6343 10.5327L36.1684 21.09H2.7012C1.19227 21.09 0 22.2713 0 23.7806V26.0989C0 27.6082 1.19227 28.9086 2.7012 28.9086H36.2879L25.6347 39.5248C25.1197 40.0402 24.836 40.7089 24.836 41.4418C24.836 42.174 25.1197 42.8524 25.6347 43.3674L27.2742 45.002C27.7896 45.5174 28.4762 45.7983 29.2095 45.7983C29.942 45.7983 30.629 45.5138 31.1444 44.9983L49.2012 26.9416C49.7179 26.4245 50.002 25.7342 50 25.0005C50.0016 24.2643 49.7179 23.5737 49.2008 23.0574Z" fill="black"/>
</svg>
