<svg width="126" height="34" viewBox="0 0 126 34" fill="none" xmlns="http://www.w3.org/2000/svg">
<path d="M39.5215 12.658C39.1549 12.2473 38.5902 11.8733 37.8275 11.536C37.0649 11.1987 36.2142 11.03 35.2755 11.03C34.0729 11.03 33.1855 11.2573 32.6135 11.712C32.0415 12.1667 31.7555 12.79 31.7555 13.582C31.7555 14.1393 31.9022 14.5793 32.1955 14.902C32.4889 15.2247 32.9362 15.4887 33.5375 15.694C34.1535 15.8993 34.9309 16.112 35.8695 16.332C36.9549 16.5667 37.8935 16.8527 38.6855 17.19C39.4775 17.5273 40.0862 17.982 40.5115 18.554C40.9369 19.1113 41.1495 19.8593 41.1495 20.798C41.1495 21.7953 40.9002 22.6167 40.4015 23.262C39.9029 23.9073 39.2209 24.384 38.3555 24.692C37.5049 25 36.5442 25.154 35.4735 25.154C33.0389 25.154 30.9195 24.4207 29.1155 22.954L30.0615 21.282C30.3842 21.6047 30.8169 21.9273 31.3595 22.25C31.9169 22.5727 32.5475 22.844 33.2515 23.064C33.9702 23.2693 34.7255 23.372 35.5175 23.372C36.6322 23.372 37.4975 23.174 38.1135 22.778C38.7295 22.3673 39.0375 21.7733 39.0375 20.996C39.0375 20.4093 38.8615 19.94 38.5095 19.588C38.1722 19.236 37.6662 18.9427 36.9915 18.708C36.3169 18.4733 35.4955 18.2387 34.5275 18.004C33.4715 17.74 32.5842 17.454 31.8655 17.146C31.1469 16.8233 30.6042 16.4053 30.2375 15.892C29.8855 15.3787 29.7095 14.7113 29.7095 13.89C29.7095 12.8927 29.9515 12.0493 30.4355 11.36C30.9195 10.6707 31.5869 10.15 32.4375 9.798C33.2882 9.446 34.2489 9.27 35.3195 9.27C36.3609 9.27 37.3069 9.43133 38.1575 9.754C39.0229 10.0767 39.7855 10.5093 40.4455 11.052L39.5215 12.658ZM42.5438 21.678C42.5438 20.9447 42.7491 20.314 43.1598 19.786C43.5851 19.2433 44.1645 18.8253 44.8978 18.532C45.6311 18.2387 46.4818 18.092 47.4498 18.092C47.9631 18.092 48.5058 18.136 49.0778 18.224C49.6498 18.2973 50.1558 18.4147 50.5958 18.576V17.74C50.5958 16.86 50.3318 16.1707 49.8038 15.672C49.2758 15.1587 48.5278 14.902 47.5598 14.902C46.9291 14.902 46.3205 15.0193 45.7338 15.254C45.1618 15.474 44.5531 15.7967 43.9078 16.222L43.2038 14.858C43.9518 14.3447 44.6998 13.9633 45.4478 13.714C46.1958 13.45 46.9731 13.318 47.7798 13.318C49.2465 13.318 50.4051 13.7287 51.2558 14.55C52.1065 15.3567 52.5318 16.486 52.5318 17.938V22.8C52.5318 23.2547 52.7371 23.4893 53.1478 23.504V25C52.9571 25.0293 52.7885 25.0513 52.6418 25.066C52.5098 25.0807 52.3998 25.088 52.3118 25.088C51.8571 25.088 51.5125 24.9633 51.2778 24.714C51.0578 24.4647 50.9331 24.2007 50.9038 23.922L50.8598 23.196C50.3611 23.8413 49.7085 24.34 48.9018 24.692C48.0951 25.044 47.2958 25.22 46.5038 25.22C45.7411 25.22 45.0591 25.066 44.4578 24.758C43.8565 24.4353 43.3871 24.01 43.0498 23.482C42.7125 22.9393 42.5438 22.338 42.5438 21.678ZM50.0238 22.492C50.1998 22.2867 50.3391 22.0813 50.4418 21.876C50.5445 21.656 50.5958 21.4727 50.5958 21.326V19.896C49.6571 19.5293 48.6891 19.346 47.6918 19.346C46.7091 19.346 45.9098 19.544 45.2938 19.94C44.6925 20.3213 44.3918 20.8493 44.3918 21.524C44.3918 21.8907 44.4871 22.25 44.6778 22.602C44.8831 22.9393 45.1765 23.218 45.5578 23.438C45.9538 23.658 46.4378 23.768 47.0098 23.768C47.6111 23.768 48.1831 23.6507 48.7258 23.416C49.2685 23.1667 49.7011 22.8587 50.0238 22.492ZM55.7902 28.124C55.9809 28.1387 56.1715 28.1533 56.3622 28.168C56.5529 28.1973 56.6995 28.212 56.8022 28.212C57.0369 28.212 57.2422 28.1313 57.4182 27.97C57.5942 27.8087 57.7849 27.4933 57.9902 27.024C58.2102 26.5693 58.4889 25.8947 58.8262 25L53.9642 13.516H56.0102L59.8822 23.042L63.3802 13.516H65.2942L59.7062 28.014C59.5155 28.5273 59.1709 28.9747 58.6722 29.356C58.1882 29.752 57.5355 29.95 56.7142 29.95C56.5822 29.95 56.4429 29.9427 56.2962 29.928C56.1642 29.9133 55.9955 29.884 55.7902 29.84V28.124ZM85.0834 9.38V25H83.1034V17.894H74.5014V25H72.5214V9.38H74.5014V16.134H83.1034V9.38H85.0834ZM93.4086 25.22C92.2646 25.22 91.2526 24.9487 90.3726 24.406C89.4926 23.8633 88.8033 23.1373 88.3046 22.228C87.806 21.3187 87.5566 20.3287 87.5566 19.258C87.5566 18.1727 87.806 17.1827 88.3046 16.288C88.8033 15.3933 89.4926 14.6747 90.3726 14.132C91.2673 13.5893 92.2866 13.318 93.4306 13.318C94.5893 13.318 95.594 13.5967 96.4446 14.154C97.31 14.6967 97.9773 15.4153 98.4466 16.31C98.9306 17.19 99.1726 18.1433 99.1726 19.17C99.1726 19.4927 99.158 19.742 99.1286 19.918H89.6026C89.6613 20.666 89.8666 21.3333 90.2186 21.92C90.5853 22.492 91.0546 22.9467 91.6266 23.284C92.1986 23.6067 92.8146 23.768 93.4746 23.768C94.1786 23.768 94.8386 23.592 95.4546 23.24C96.0853 22.888 96.518 22.426 96.7526 21.854L98.4246 22.316C98.058 23.1667 97.42 23.8633 96.5106 24.406C95.6013 24.9487 94.5673 25.22 93.4086 25.22ZM89.5366 18.576H97.3686C97.31 17.828 97.0973 17.168 96.7306 16.596C96.364 16.024 95.8946 15.5767 95.3226 15.254C94.7506 14.9313 94.12 14.77 93.4306 14.77C92.756 14.77 92.1326 14.9313 91.5606 15.254C90.9886 15.5767 90.5193 16.024 90.1526 16.596C89.8006 17.168 89.5953 17.828 89.5366 18.576ZM101.369 8.94H103.305V22.03C103.305 22.6607 103.393 23.0493 103.569 23.196C103.745 23.3427 103.957 23.416 104.207 23.416C104.515 23.416 104.808 23.3867 105.087 23.328C105.365 23.2547 105.6 23.1813 105.791 23.108L106.099 24.692C105.776 24.824 105.395 24.934 104.955 25.022C104.515 25.11 104.126 25.154 103.789 25.154C103.041 25.154 102.447 24.9413 102.007 24.516C101.581 24.0907 101.369 23.4967 101.369 22.734V8.94ZM107.664 8.94H109.6V22.03C109.6 22.6607 109.688 23.0493 109.864 23.196C110.04 23.3427 110.252 23.416 110.502 23.416C110.81 23.416 111.103 23.3867 111.382 23.328C111.66 23.2547 111.895 23.1813 112.086 23.108L112.394 24.692C112.071 24.824 111.69 24.934 111.25 25.022C110.81 25.11 110.421 25.154 110.084 25.154C109.336 25.154 108.742 24.9413 108.302 24.516C107.876 24.0907 107.664 23.4967 107.664 22.734V8.94ZM118.931 25.22C117.787 25.22 116.775 24.9487 115.895 24.406C115.029 23.8487 114.355 23.1227 113.871 22.228C113.387 21.3187 113.145 20.336 113.145 19.28C113.145 18.2093 113.387 17.2267 113.871 16.332C114.369 15.4227 115.051 14.6967 115.917 14.154C116.797 13.5967 117.801 13.318 118.931 13.318C120.075 13.318 121.079 13.5967 121.945 14.154C122.825 14.6967 123.507 15.4227 123.991 16.332C124.489 17.2267 124.739 18.2093 124.739 19.28C124.739 20.336 124.489 21.3187 123.991 22.228C123.507 23.1227 122.832 23.8487 121.967 24.406C121.101 24.9487 120.089 25.22 118.931 25.22ZM115.125 19.302C115.125 20.094 115.293 20.8127 115.631 21.458C115.983 22.1033 116.445 22.6167 117.017 22.998C117.589 23.3647 118.227 23.548 118.931 23.548C119.635 23.548 120.273 23.3573 120.845 22.976C121.431 22.5947 121.893 22.0813 122.231 21.436C122.583 20.776 122.759 20.05 122.759 19.258C122.759 18.466 122.583 17.7473 122.231 17.102C121.893 16.4567 121.431 15.9433 120.845 15.562C120.273 15.1807 119.635 14.99 118.931 14.99C118.227 14.99 117.589 15.188 117.017 15.584C116.445 15.9653 115.983 16.4787 115.631 17.124C115.293 17.7693 115.125 18.4953 115.125 19.302Z" fill="#132B50"/>
<path d="M17.2677 15.061L13.0023 18.4953C12.1951 19.1282 11.0635 19.1282 10.2563 18.4953L5.95422 15.061" stroke="#132B50" stroke-width="1.5" stroke-linecap="round" stroke-linejoin="round"/>
<path fill-rule="evenodd" clip-rule="evenodd" d="M6.88787 9.5H16.3158C17.6752 9.51525 18.969 10.0899 19.896 11.0902C20.823 12.0905 21.3022 13.429 21.222 14.7941V21.322C21.3022 22.6871 20.823 24.0256 19.896 25.0259C18.969 26.0262 17.6752 26.6009 16.3158 26.6161H6.88787C3.96796 26.6161 2 24.2407 2 21.322V14.7941C2 11.8754 3.96796 9.5 6.88787 9.5Z" stroke="#132B50" stroke-width="1.5" stroke-linecap="round" stroke-linejoin="round"/>
</svg>
