<svg width="50" height="50" viewBox="0 0 50 50" fill="none" xmlns="http://www.w3.org/2000/svg">
<g clip-path="url(#clip0)">
<path d="M41.4896 27.1415C40.6813 26.1207 40.9125 25.6665 41.4896 24.754C41.5 24.7436 48.1729 15.5228 48.8604 12.3957L48.8646 12.3936C49.2062 11.254 48.8646 10.4165 47.2125 10.4165H41.7458C40.3542 10.4165 39.7125 11.1353 39.3687 11.9394C39.3687 11.9394 36.5854 18.6019 32.6479 22.9207C31.3771 24.1686 30.7896 24.5686 30.0958 24.5686C29.7542 24.5686 29.2229 24.1686 29.2229 23.029V12.3936C29.2229 11.0269 28.8333 10.4165 27.6812 10.4165H19.0854C18.2125 10.4165 17.6937 11.054 17.6937 11.6478C17.6937 12.9436 19.6625 13.2415 19.8667 16.8873V24.7978C19.8667 26.5311 19.5521 26.8498 18.8542 26.8498C16.9958 26.8498 12.4854 20.1603 9.8125 12.504C9.27292 11.0186 8.74583 10.4186 7.34375 10.4186H1.875C0.314583 10.4186 0 11.1373 0 11.9415C0 13.3623 1.85833 20.4269 8.64167 29.7603C13.1625 36.1311 19.5292 39.5832 25.3208 39.5832C28.8021 39.5832 29.2271 38.8165 29.2271 37.4978C29.2271 31.4103 28.9125 30.8353 30.6562 30.8353C31.4646 30.8353 32.8562 31.2353 36.1062 34.3082C39.8208 37.9519 40.4312 39.5832 42.5104 39.5832H47.9771C49.5354 39.5832 50.325 38.8165 49.8708 37.304C48.8312 34.1228 41.8063 27.579 41.4896 27.1415V27.1415Z" fill="black"/>
</g>
<defs>
<clipPath id="clip0">
<rect width="50" height="50" fill="white"/>
</clipPath>
</defs>
</svg>
